<svg width="248" height="43" viewBox="0 0 248 43" fill="none" xmlns="http://www.w3.org/2000/svg">
<path d="M0.413352 34.2792V11.0064H5.33381V20.6087H15.3224V11.0064H20.2315V34.2792H15.3224V24.6655H5.33381V34.2792H0.413352ZM29.2088 11.0064V34.2792H24.2884V11.0064H29.2088ZM41.5071 34.2792H33.2571V11.0064H41.5753C43.9162 11.0064 45.9313 11.4724 47.6207 12.4042C49.3101 13.3284 50.6094 14.658 51.5185 16.3928C52.4351 18.1277 52.8935 20.2034 52.8935 22.6201C52.8935 25.0443 52.4351 27.1277 51.5185 28.8701C50.6094 30.6125 49.3026 31.9496 47.598 32.8814C45.901 33.8133 43.8707 34.2792 41.5071 34.2792ZM38.1776 30.0633H41.3026C42.7571 30.0633 43.9806 29.8057 44.973 29.2905C45.973 28.7678 46.723 27.961 47.223 26.8701C47.7306 25.7716 47.9844 24.3549 47.9844 22.6201C47.9844 20.9004 47.7306 19.4951 47.223 18.4042C46.723 17.3133 45.9768 16.5102 44.9844 15.9951C43.992 15.4799 42.7685 15.2224 41.3139 15.2224H38.1776V30.0633ZM56.5384 34.2792V11.0064H65.7202C67.4777 11.0064 68.9777 11.3208 70.2202 11.9496C71.4702 12.5708 72.4209 13.4534 73.0724 14.5974C73.7315 15.7337 74.0611 17.0708 74.0611 18.6087C74.0611 20.1542 73.7277 21.4837 73.0611 22.5974C72.3944 23.7034 71.4285 24.5519 70.1634 25.1428C68.9058 25.7337 67.383 26.0292 65.5952 26.0292H59.4474V22.0746H64.7997C65.7391 22.0746 66.5194 21.9458 67.1406 21.6883C67.7618 21.4307 68.224 21.0443 68.527 20.5292C68.8376 20.014 68.9929 19.3739 68.9929 18.6087C68.9929 17.836 68.8376 17.1845 68.527 16.6542C68.224 16.1239 67.758 15.7224 67.1293 15.4496C66.508 15.1693 65.724 15.0292 64.777 15.0292H61.4588V34.2792H56.5384ZM69.1065 23.6883L74.8906 34.2792H69.4588L63.7997 23.6883H69.1065ZM98.9247 22.6428C98.9247 25.1807 98.4437 27.3398 97.4815 29.1201C96.527 30.9004 95.224 32.2602 93.5724 33.1996C91.9285 34.1314 90.08 34.5974 88.027 34.5974C85.9588 34.5974 84.1027 34.1277 82.4588 33.1883C80.8149 32.2489 79.5156 30.889 78.5611 29.1087C77.6065 27.3284 77.1293 25.1731 77.1293 22.6428C77.1293 20.1049 77.6065 17.9458 78.5611 16.1655C79.5156 14.3852 80.8149 13.0292 82.4588 12.0974C84.1027 11.158 85.9588 10.6883 88.027 10.6883C90.08 10.6883 91.9285 11.158 93.5724 12.0974C95.224 13.0292 96.527 14.3852 97.4815 16.1655C98.4437 17.9458 98.9247 20.1049 98.9247 22.6428ZM93.9361 22.6428C93.9361 20.9989 93.6899 19.6125 93.1974 18.4837C92.7126 17.3549 92.027 16.4989 91.1406 15.9155C90.2543 15.3322 89.2164 15.0405 88.027 15.0405C86.8376 15.0405 85.7997 15.3322 84.9134 15.9155C84.027 16.4989 83.3376 17.3549 82.8452 18.4837C82.3603 19.6125 82.1179 20.9989 82.1179 22.6428C82.1179 24.2868 82.3603 25.6731 82.8452 26.8019C83.3376 27.9307 84.027 28.7868 84.9134 29.3701C85.7997 29.9534 86.8376 30.2451 88.027 30.2451C89.2164 30.2451 90.2543 29.9534 91.1406 29.3701C92.027 28.7868 92.7126 27.9307 93.1974 26.8019C93.6899 25.6731 93.9361 24.2868 93.9361 22.6428ZM109.976 11.0064H116.044L122.453 26.6428H122.726L129.135 11.0064H135.203V34.2792H130.43V19.1314H130.237L124.214 34.1655H120.964L114.942 19.0746H114.749V34.2792H109.976V11.0064ZM160.643 22.6428C160.643 25.1807 160.162 27.3398 159.2 29.1201C158.246 30.9004 156.943 32.2602 155.291 33.1996C153.647 34.1314 151.799 34.5974 149.746 34.5974C147.678 34.5974 145.821 34.1277 144.178 33.1883C142.534 32.2489 141.234 30.889 140.28 29.1087C139.325 27.3284 138.848 25.1731 138.848 22.6428C138.848 20.1049 139.325 17.9458 140.28 16.1655C141.234 14.3852 142.534 13.0292 144.178 12.0974C145.821 11.158 147.678 10.6883 149.746 10.6883C151.799 10.6883 153.647 11.158 155.291 12.0974C156.943 13.0292 158.246 14.3852 159.2 16.1655C160.162 17.9458 160.643 20.1049 160.643 22.6428ZM155.655 22.6428C155.655 20.9989 155.409 19.6125 154.916 18.4837C154.431 17.3549 153.746 16.4989 152.859 15.9155C151.973 15.3322 150.935 15.0405 149.746 15.0405C148.556 15.0405 147.518 15.3322 146.632 15.9155C145.746 16.4989 145.056 17.3549 144.564 18.4837C144.079 19.6125 143.837 20.9989 143.837 22.6428C143.837 24.2868 144.079 25.6731 144.564 26.8019C145.056 27.9307 145.746 28.7868 146.632 29.3701C147.518 29.9534 148.556 30.2451 149.746 30.2451C150.935 30.2451 151.973 29.9534 152.859 29.3701C153.746 28.7868 154.431 27.9307 154.916 26.8019C155.409 25.6731 155.655 24.2868 155.655 22.6428ZM178.663 11.0064H183.584V26.1201C183.584 27.8171 183.179 29.3019 182.368 30.5746C181.565 31.8474 180.44 32.8398 178.993 33.5519C177.546 34.2564 175.86 34.6087 173.936 34.6087C172.004 34.6087 170.315 34.2564 168.868 33.5519C167.421 32.8398 166.296 31.8474 165.493 30.5746C164.69 29.3019 164.288 27.8171 164.288 26.1201V11.0064H169.209V25.6996C169.209 26.586 169.402 27.3739 169.788 28.0633C170.182 28.7527 170.735 29.2943 171.447 29.6883C172.16 30.0822 172.989 30.2792 173.936 30.2792C174.891 30.2792 175.72 30.0822 176.425 29.6883C177.137 29.2943 177.686 28.7527 178.072 28.0633C178.466 27.3739 178.663 26.586 178.663 25.6996V11.0064ZM187.632 34.2792V11.0064H196.814C198.571 11.0064 200.071 11.3208 201.314 11.9496C202.564 12.5708 203.515 13.4534 204.166 14.5974C204.825 15.7337 205.155 17.0708 205.155 18.6087C205.155 20.1542 204.821 21.4837 204.155 22.5974C203.488 23.7034 202.522 24.5519 201.257 25.1428C200 25.7337 198.477 26.0292 196.689 26.0292H190.541V22.0746H195.893C196.833 22.0746 197.613 21.9458 198.234 21.6883C198.856 21.4307 199.318 21.0443 199.621 20.5292C199.931 20.014 200.087 19.3739 200.087 18.6087C200.087 17.836 199.931 17.1845 199.621 16.6542C199.318 16.1239 198.852 15.7224 198.223 15.4496C197.602 15.1693 196.818 15.0292 195.871 15.0292H192.553V34.2792H187.632ZM200.2 23.6883L205.984 34.2792H200.553L194.893 23.6883H200.2Z" fill="white"/>
<path d="M247.199 22.6428C247.199 25.1807 246.718 27.3398 245.756 29.1201C244.801 30.9004 243.498 32.2602 241.847 33.1996C240.203 34.1314 238.354 34.5974 236.301 34.5974C234.233 34.5974 232.377 34.1277 230.733 33.1883C229.089 32.2489 227.79 30.889 226.835 29.1087C225.881 27.3284 225.403 25.1731 225.403 22.6428C225.403 20.1049 225.881 17.9458 226.835 16.1655C227.79 14.3852 229.089 13.0292 230.733 12.0974C232.377 11.158 234.233 10.6883 236.301 10.6883C238.354 10.6883 240.203 11.158 241.847 12.0974C243.498 13.0292 244.801 14.3852 245.756 16.1655C246.718 17.9458 247.199 20.1049 247.199 22.6428ZM242.21 22.6428C242.21 20.9989 241.964 19.6125 241.472 18.4837C240.987 17.3549 240.301 16.4989 239.415 15.9155C238.528 15.3322 237.49 15.0405 236.301 15.0405C235.112 15.0405 234.074 15.3322 233.187 15.9155C232.301 16.4989 231.612 17.3549 231.119 18.4837C230.634 19.6125 230.392 20.9989 230.392 22.6428C230.392 24.2868 230.634 25.6731 231.119 26.8019C231.612 27.9307 232.301 28.7868 233.187 29.3701C234.074 29.9534 235.112 30.2451 236.301 30.2451C237.49 30.2451 238.528 29.9534 239.415 29.3701C240.301 28.7868 240.987 27.9307 241.472 26.8019C241.964 25.6731 242.21 24.2868 242.21 22.6428Z" fill="white"/>
<path d="M221.303 23.1663C224.152 28.0061 220.527 34.2792 215.472 34.2792C210.416 34.2792 205.376 29.5997 209.547 22.841C214.759 13.8258 213.462 18.4993 215.726 10.7809C217.871 18.2907 216.338 13.8712 221.303 23.1663Z" fill="#0066FF"/>
<path d="M222.214 2.572C222.214 5.87724 218.548 9.06278 215.543 3.8944C213.319 0.0682314 208.091 2.69236 208.091 5.99764" stroke="#0066FF" stroke-width="2.24282" stroke-linecap="round"/>
</svg>
